<?xml version="1.0" standalone="no"?>
<!DOCTYPE svg PUBLIC "-//W3C//DTD SVG 20010904//EN"
 "http://www.w3.org/TR/2001/REC-SVG-20010904/DTD/svg10.dtd">
<svg version="1.0" xmlns="http://www.w3.org/2000/svg"
 width="1024.000000pt" height="1024.000000pt" viewBox="0 0 1024.000000 1024.000000"
 preserveAspectRatio="xMidYMid meet">

<g transform="translate(0.000000,1024.000000) scale(0.100000,-0.100000)"
fill="#000000" stroke="none">
<path d="M3269 7795 c-320 -64 -586 -341 -644 -669 -8 -49 -15 -109 -14 -135
l1 -46 13 64 c49 224 185 447 357 586 79 64 95 84 62 77 -8 -2 -14 4 -14 11 0
20 53 29 62 12 6 -10 20 -7 61 15 28 16 99 45 157 64 88 30 98 36 65 35 -22
-1 -70 -7 -106 -14z"/>
<path d="M6880 7803 c0 -5 24 -15 54 -24 43 -12 59 -13 76 -4 20 11 17 13 -36
23 -67 14 -94 15 -94 5z"/>
<path d="M7183 7713 c18 -21 23 -38 8 -29 -5 3 -11 0 -14 -8 -3 -8 12 -26 39
-46 72 -51 163 -140 214 -207 26 -34 50 -60 53 -57 3 3 4 -1 4 -8 -1 -7 19
-53 44 -103 48 -94 74 -163 95 -255 l13 -55 -6 70 c-3 39 -9 71 -14 73 -4 2
-5 10 -2 18 15 39 -63 245 -128 341 -68 99 -206 226 -299 273 -24 13 -25 12
-7 -7z m265 -274 c-2 -6 3 -14 10 -16 7 -3 12 3 12 14 0 15 3 14 19 -7 11 -13
17 -28 15 -32 -3 -4 0 -18 6 -30 l11 -23 -17 23 c-9 12 -22 22 -29 22 -15 0
-47 45 -38 54 9 9 13 7 11 -5z"/>
<path d="M4328 7246 c-122 -69 -206 -133 -304 -231 -171 -169 -270 -357 -326
-614 -31 -141 -30 -404 1 -550 38 -179 106 -331 205 -460 67 -87 216 -224 319
-292 156 -103 541 -281 1172 -539 378 -155 475 -209 588 -329 120 -128 173
-279 164 -471 -17 -380 -284 -603 -739 -618 -87 -3 -180 0 -227 7 -398 58
-791 333 -1044 729 -26 39 -50 72 -54 72 -3 0 -38 -23 -77 -52 -39 -28 -156
-114 -261 -191 -104 -76 -191 -142 -193 -146 -4 -12 113 -187 193 -287 146
-182 282 -309 464 -432 297 -201 641 -313 1016 -329 665 -28 1217 250 1455
732 94 189 130 356 130 594 0 81 -7 187 -15 238 -42 258 -161 483 -351 663
-190 180 -313 245 -1097 581 -463 199 -626 277 -735 352 -133 92 -220 211
-253 347 -22 87 -17 252 9 335 47 152 153 277 297 350 l76 39 -3 115 -3 116
-205 5 -205 5 -12 45 c-6 25 -12 64 -12 86 -1 37 6 49 54 103 49 56 61 71 52
71 -1 0 -37 -20 -79 -44z"/>
<path d="M5740 5900 c0 -19 -7 -20 -145 -20 l-145 0 0 -120 0 -120 255 0 255
0 0 50 c0 36 -4 50 -14 50 -8 0 -17 -6 -19 -12 -4 -10 -8 -10 -15 1 -7 9 -19
11 -37 7 -24 -6 -26 -5 -23 21 2 22 -1 27 -14 25 -12 -2 -15 3 -10 20 5 22 5
22 -12 6 -22 -22 -22 -22 -46 2 -11 11 -15 20 -9 20 5 0 7 5 3 11 -3 6 -15 9
-25 6 -23 -6 -24 -1 -4 19 14 14 21 54 10 54 -3 0 -5 -9 -5 -20z m-126 -51 c9
-13 19 -18 28 -13 7 4 10 4 6 -1 -4 -4 -3 -14 3 -21 7 -9 4 -14 -13 -19 -48
-13 -69 -29 -66 -49 1 -12 -1 -27 -6 -34 -7 -11 -4 -12 12 -3 28 15 32 14 32
-8 0 -10 6 -21 14 -24 9 -4 13 3 12 23 -1 16 -6 26 -12 23 -22 -8 -25 16 -3
27 17 10 23 8 36 -7 12 -15 14 -15 10 -1 -3 9 -3 19 1 23 4 4 7 18 7 32 0 18
6 27 19 29 14 2 16 0 7 -9 -14 -14 -15 -54 -1 -62 6 -3 10 2 10 12 0 10 4 14
8 8 4 -6 20 -17 35 -25 16 -8 24 -16 18 -18 -6 -2 -9 -7 -6 -12 2 -4 -4 -15
-14 -24 -17 -16 -20 -16 -35 -1 -20 20 -13 35 14 30 13 -2 20 2 20 11 0 17 -2
17 -35 2 -14 -6 -25 -19 -25 -28 0 -20 24 -43 33 -33 4 3 7 1 7 -7 0 -10 3
-10 15 0 11 9 15 9 15 1 0 -7 5 -9 12 -5 6 4 8 3 4 -4 -8 -14 -78 -10 -83 5
-3 7 -10 11 -16 9 -7 -1 -9 -1 -4 1 14 8 7 22 -8 17 -8 -4 -15 -15 -15 -25 0
-18 -7 -19 -95 -18 l-95 1 0 102 c0 57 3 106 7 109 3 4 35 7 69 7 53 0 65 -3
78 -21z m56 -67 c0 -14 -11 -21 -26 -15 -8 3 -11 9 -8 14 7 11 34 12 34 1z"/>
<path d="M5577 5810 c-3 -11 -1 -20 4 -20 5 0 9 9 9 20 0 11 -2 20 -4 20 -2 0
-6 -9 -9 -20z"/>
<path d="M5527 5788 c-2 -7 2 -19 9 -26 12 -10 14 -10 14 3 0 8 0 18 1 22 1
14 -18 14 -24 1z"/>
<path d="M5874 5770 c0 -10 6 -16 13 -13 7 3 13 9 13 13 0 4 -6 10 -13 13 -7
3 -13 -3 -13 -13z"/>
<path d="M6501 5548 l-1 -88 -280 0 -280 0 0 -150 0 -150 440 0 440 0 0 167
c0 91 -2 164 -5 161 -3 -3 -6 -42 -6 -86 0 -46 -5 -82 -11 -82 -5 0 -7 -4 -4
-9 4 -5 -3 -7 -14 -4 -11 3 -23 9 -26 14 -3 5 -11 9 -17 9 -7 0 -6 -4 3 -10
12 -8 10 -10 -8 -10 -13 0 -21 4 -18 8 2 4 1 14 -5 22 -7 13 -9 12 -9 -2 0 -9
-4 -19 -9 -22 -5 -4 -7 3 -4 15 5 19 4 20 -16 8 -11 -8 -21 -19 -21 -26 0 -7
-4 -13 -10 -13 -5 0 -7 -7 -4 -15 4 -10 0 -15 -13 -15 -11 0 -23 -3 -27 -7 -3
-4 -17 -8 -29 -9 -12 -2 -17 0 -10 2 7 3 9 12 6 20 -3 8 0 14 7 14 6 0 8 -5 4
-11 -4 -7 -1 -10 6 -7 18 6 22 38 5 38 -7 0 -15 5 -17 11 -3 9 -9 9 -25 1 -11
-6 -48 -10 -83 -9 -52 1 -64 5 -68 20 -3 11 -10 16 -19 13 -8 -3 -18 -6 -21
-7 -4 0 2 -5 13 -10 15 -6 11 -7 -15 -3 -35 7 -53 21 -44 36 3 4 -2 8 -10 8
-12 0 -14 -5 -6 -25 6 -16 6 -25 0 -25 -6 0 -10 4 -10 9 0 4 -11 6 -25 3 -15
-2 -25 0 -25 7 0 6 -7 11 -17 11 -9 0 -14 3 -10 6 3 4 1 12 -6 19 -14 13 -47
16 -47 3 0 -4 8 -8 17 -8 9 0 13 -3 9 -7 -4 -4 -22 1 -42 12 -26 14 -37 16
-46 7 -7 -7 -8 -12 -2 -12 16 0 13 -32 -4 -55 -13 -19 -14 -19 -9 7 2 16 -1
32 -8 38 -10 8 -12 3 -10 -25 1 -24 -1 -32 -9 -27 -18 14 -48 23 -41 13 3 -5
1 -12 -5 -16 -6 -4 -10 4 -10 18 0 14 -7 27 -15 31 -9 3 -15 0 -15 -8 0 -8 4
-16 9 -18 5 -1 3 -9 -5 -16 -12 -11 -14 -5 -14 35 1 39 6 53 28 75 l28 28 272
0 c175 1 272 5 272 11 0 6 -4 8 -8 5 -4 -2 -14 -1 -22 5 -12 7 -9 9 10 10 16
1 19 3 8 6 -16 4 -19 15 -31 118 -2 17 -5 -9 -6 -57z m29 -294 c0 -11 -5 -14
-16 -10 -9 3 -18 6 -20 6 -3 0 -2 5 1 10 10 16 35 12 35 -6z"/>
<path d="M6255 5380 c-3 -5 -1 -10 4 -10 6 0 11 5 11 10 0 6 -2 10 -4 10 -3 0
-8 -4 -11 -10z"/>
<path d="M6336 5381 c-3 -5 1 -11 9 -14 9 -4 12 -1 8 9 -6 16 -10 17 -17 5z"/>
<path d="M6023 5365 c0 -8 4 -12 9 -9 5 3 6 10 3 15 -9 13 -12 11 -12 -6z"/>
<path d="M6527 5364 c-3 -3 -3 -13 0 -22 4 -10 2 -13 -5 -8 -6 3 -13 2 -17 -3
-7 -13 35 -5 49 9 7 7 4 10 -8 10 -9 0 -14 5 -11 10 7 11 2 14 -8 4z"/>
<path d="M6455 5340 c-3 -5 -1 -10 4 -10 6 0 11 5 11 10 0 6 -2 10 -4 10 -3 0
-8 -4 -11 -10z"/>
<path d="M6610 5340 c0 -5 5 -10 10 -10 6 0 10 5 10 10 0 6 -4 10 -10 10 -5 0
-10 -4 -10 -10z"/>
<path d="M6415 5330 c-16 -7 -17 -9 -3 -9 9 -1 20 4 23 9 7 11 7 11 -20 0z"/>
<path d="M2896 4119 c-13 -66 0 -149 28 -174 6 -6 12 -17 14 -25 5 -23 33 -50
81 -78 62 -36 172 -43 233 -13 52 25 112 82 82 76 -11 -1 -18 -8 -17 -13 2 -6
-4 -9 -12 -6 -8 4 -13 10 -10 14 3 4 -5 10 -16 13 -12 3 -18 10 -15 16 11 17
-13 22 -36 8 -53 -34 -128 -28 -180 12 -19 15 -25 16 -25 6 0 -8 5 -11 10 -8
6 3 7 1 3 -6 -4 -6 -15 -10 -24 -9 -11 2 -18 -5 -20 -19 -5 -37 -41 -22 -44
17 0 3 -4 13 -10 23 -7 14 -4 24 17 43 14 13 31 22 36 19 5 -4 9 1 9 10 0 9
-4 14 -9 11 -5 -4 -5 10 0 32 11 50 11 52 -5 46 -8 -3 -16 -14 -19 -25 -3 -11
-14 -19 -26 -19 -12 0 -21 -4 -21 -10 0 -5 -4 -10 -10 -10 -5 0 -10 14 -10 31
0 16 4 28 9 25 4 -3 6 6 3 19 -6 32 -8 31 -16 -6z m74 -79 c0 -5 -5 -10 -11
-10 -5 0 -7 5 -4 10 3 6 8 10 11 10 2 0 4 -4 4 -10z"/>
<path d="M3301 4054 c0 -11 3 -14 6 -6 3 7 2 16 -1 19 -3 4 -6 -2 -5 -13z"/>
<path d="M7625 3324 c-17 -116 -98 -301 -178 -411 -140 -190 -330 -317 -582
-389 l-50 -14 80 4 c219 13 460 153 587 340 91 133 141 273 154 434 7 88 1
111 -11 36z"/>
<path d="M2614 3280 c13 -224 117 -432 288 -578 121 -103 347 -193 482 -192
l61 1 -91 24 c-266 68 -508 265 -633 511 -45 91 -61 131 -87 229 l-25 90 5
-85z"/>
</g>
</svg>
